<svg width="1280" height="420" viewBox="0 0 1280 420" fill="none" xmlns="http://www.w3.org/2000/svg">
  <defs>
    <linearGradient id="bg" x1="0" y1="0" x2="1280" y2="420" gradientUnits="userSpaceOnUse">
      <stop stop-color="#07110F"/>
      <stop offset="0.52" stop-color="#0B1724"/>
      <stop offset="1" stop-color="#172017"/>
    </linearGradient>
    <radialGradient id="glowA" cx="0" cy="0" r="1" gradientUnits="userSpaceOnUse" gradientTransform="translate(260 74) rotate(37) scale(430 250)">
      <stop stop-color="#5EEAD4" stop-opacity="0.42"/>
      <stop offset="1" stop-color="#5EEAD4" stop-opacity="0"/>
    </radialGradient>
    <radialGradient id="glowB" cx="0" cy="0" r="1" gradientUnits="userSpaceOnUse" gradientTransform="translate(1080 96) rotate(134) scale(320 220)">
      <stop stop-color="#FBBF24" stop-opacity="0.26"/>
      <stop offset="1" stop-color="#FBBF24" stop-opacity="0"/>
    </radialGradient>
    <filter id="shadow" x="-20%" y="-20%" width="140%" height="140%" color-interpolation-filters="sRGB">
      <feDropShadow dx="0" dy="24" stdDeviation="24" flood-color="#000000" flood-opacity="0.38"/>
    </filter>
  </defs>

  <rect width="1280" height="420" rx="28" fill="url(#bg)"/>
  <rect width="1280" height="420" rx="28" fill="url(#glowA)"/>
  <rect width="1280" height="420" rx="28" fill="url(#glowB)"/>

  <g opacity="0.18">
    <path d="M0 94H1280" stroke="#FFFFFF"/>
    <path d="M0 188H1280" stroke="#FFFFFF"/>
    <path d="M0 282H1280" stroke="#FFFFFF"/>
    <path d="M0 376H1280" stroke="#FFFFFF"/>
    <path d="M112 0V420" stroke="#FFFFFF"/>
    <path d="M224 0V420" stroke="#FFFFFF"/>
    <path d="M336 0V420" stroke="#FFFFFF"/>
    <path d="M448 0V420" stroke="#FFFFFF"/>
    <path d="M560 0V420" stroke="#FFFFFF"/>
    <path d="M672 0V420" stroke="#FFFFFF"/>
    <path d="M784 0V420" stroke="#FFFFFF"/>
    <path d="M896 0V420" stroke="#FFFFFF"/>
    <path d="M1008 0V420" stroke="#FFFFFF"/>
    <path d="M1120 0V420" stroke="#FFFFFF"/>
    <path d="M1232 0V420" stroke="#FFFFFF"/>
  </g>

  <g transform="translate(82 84)">
    <rect x="0" y="0" width="58" height="58" rx="14" fill="#64F3BF" fill-opacity="0.13" stroke="#64F3BF" stroke-opacity="0.56"/>
    <path d="M19 29V24C19 18.48 23.48 14 29 14C34.52 14 39 18.48 39 24V29" stroke="#CFFFEA" stroke-width="3" stroke-linecap="round"/>
    <rect x="16" y="27" width="26" height="20" rx="5" stroke="#CFFFEA" stroke-width="3"/>
  </g>

  <text x="82" y="196" fill="#FFFFFF" font-family="Inter, Segoe UI, Arial, sans-serif" font-size="76" font-weight="900" letter-spacing="0">SafeYield</text>
  <text x="86" y="244" fill="#A8F5D2" font-family="Inter, Segoe UI, Arial, sans-serif" font-size="26" font-weight="800" letter-spacing="1.8">PRIVATE RWA YIELD COMMITMENTS</text>
  <text x="86" y="300" fill="#CBD5E1" font-family="Inter, Segoe UI, Arial, sans-serif" font-size="26" font-weight="600">Save future income for rent, school, family, emergencies, and work</text>
  <text x="86" y="338" fill="#CBD5E1" font-family="Inter, Segoe UI, Arial, sans-serif" font-size="26" font-weight="600">without revealing balances, payout amounts, or agent permissions.</text>

  <g filter="url(#shadow)" transform="translate(762 62)">
    <rect width="398" height="292" rx="18" fill="#0F172A" stroke="#FFFFFF" stroke-opacity="0.13"/>
    <rect x="26" y="28" width="144" height="38" rx="10" fill="#64F3BF"/>
    <text x="46" y="53" fill="#07110F" font-family="Inter, Segoe UI, Arial, sans-serif" font-size="15" font-weight="900">YieldLock</text>
    <rect x="190" y="28" width="174" height="38" rx="10" fill="#FFFFFF" fill-opacity="0.06" stroke="#FFFFFF" stroke-opacity="0.12"/>
    <text x="214" y="53" fill="#CBD5E1" font-family="Inter, Segoe UI, Arial, sans-serif" font-size="15" font-weight="800">Agent Passport</text>

    <rect x="26" y="94" width="346" height="54" rx="12" fill="#FFFFFF" fill-opacity="0.055" stroke="#FFFFFF" stroke-opacity="0.12"/>
    <text x="44" y="117" fill="#7DD3FC" font-family="Inter, Segoe UI, Arial, sans-serif" font-size="13" font-weight="800">PRIVATE POOL VALUE</text>
    <text x="44" y="138" fill="#FFFFFF" font-family="Inter, Segoe UI, Arial, sans-serif" font-size="18" font-weight="800">Encrypted</text>

    <rect x="26" y="164" width="160" height="78" rx="12" fill="#FFFFFF" fill-opacity="0.055" stroke="#FFFFFF" stroke-opacity="0.12"/>
    <text x="44" y="190" fill="#A7F3D0" font-family="Inter, Segoe UI, Arial, sans-serif" font-size="13" font-weight="800">SAFE PAYMENT</text>
    <text x="44" y="218" fill="#FFFFFF" font-family="Inter, Segoe UI, Arial, sans-serif" font-size="24" font-weight="900">Active</text>

    <rect x="206" y="164" width="166" height="78" rx="12" fill="#FFFFFF" fill-opacity="0.055" stroke="#FFFFFF" stroke-opacity="0.12"/>
    <text x="224" y="190" fill="#FDE68A" font-family="Inter, Segoe UI, Arial, sans-serif" font-size="13" font-weight="800">AI HELPER</text>
    <text x="224" y="218" fill="#FFFFFF" font-family="Inter, Segoe UI, Arial, sans-serif" font-size="24" font-weight="900">Allowed</text>
  </g>
</svg>
